<?xml version="1.0" encoding="UTF-8" standalone="no"?>
<!DOCTYPE svg PUBLIC "-//W3C//DTD SVG 1.1//EN"
 "http://www.w3.org/Graphics/SVG/1.1/DTD/svg11.dtd">
<!-- Generated by graphviz version 14.1.2 (20260124.0452)
 -->
<!-- Title: Large Architecture &#45; Split Views Index Pages: 1 -->
<svg width="902pt" height="1240pt"
 viewBox="0.00 0.00 902.00 1240.00" xmlns="http://www.w3.org/2000/svg" xmlns:xlink="http://www.w3.org/1999/xlink">
<g id="graph0" class="graph" transform="scale(1 1) rotate(0) translate(57.6 1182.25)">
<title>Large Architecture &#45; Split Views Index</title>
<polygon fill="white" stroke="none" points="-57.6,57.6 -57.6,-1182.25 844.35,-1182.25 844.35,57.6 -57.6,57.6"/>
<text xml:space="preserve" text-anchor="middle" x="393.38" y="-9.05" font-family="Sans-Serif" font-size="16.00" fill="#2d3436">Large Architecture &#45; Split Views Index</text>
<g id="clust1" class="cluster">
<title>cluster_Network Layer
(See: network&#45;view.svg)</title>
<path fill="#e3f2fd" stroke="#aeb6be" d="M20,-603.95C20,-603.95 140,-603.95 140,-603.95 146,-603.95 152,-609.95 152,-615.95 152,-615.95 152,-813.05 152,-813.05 152,-819.05 146,-825.05 140,-825.05 140,-825.05 20,-825.05 20,-825.05 14,-825.05 8,-819.05 8,-813.05 8,-813.05 8,-615.95 8,-615.95 8,-609.95 14,-603.95 20,-603.95"/>
<text xml:space="preserve" text-anchor="middle" x="80.12" y="-809.65" font-family="Sans-Serif" font-size="12.00" fill="#2d3436">Network Layer</text>
<text xml:space="preserve" text-anchor="middle" x="80.12" y="-793.9" font-family="Sans-Serif" font-size="12.00" fill="#2d3436">(See: network&#45;view.svg)</text>
</g>
<g id="clust2" class="cluster">
<title>cluster_Application Layer
(See: app&#45;view.svg)</title>
<path fill="#e8f5e9" stroke="#aeb6be" d="M369,-312.35C369,-312.35 467,-312.35 467,-312.35 473,-312.35 479,-318.35 479,-324.35 479,-324.35 479,-521.45 479,-521.45 479,-527.45 473,-533.45 467,-533.45 467,-533.45 369,-533.45 369,-533.45 363,-533.45 357,-527.45 357,-521.45 357,-521.45 357,-324.35 357,-324.35 357,-318.35 363,-312.35 369,-312.35"/>
<text xml:space="preserve" text-anchor="middle" x="417.88" y="-518.05" font-family="Sans-Serif" font-size="12.00" fill="#2d3436">Application Layer</text>
<text xml:space="preserve" text-anchor="middle" x="417.88" y="-502.3" font-family="Sans-Serif" font-size="12.00" fill="#2d3436">(See: app&#45;view.svg)</text>
</g>
<g id="clust3" class="cluster">
<title>cluster_Data Layer
(See: data&#45;view.svg)</title>
<path fill="#fff3e0" stroke="#aeb6be" d="M513,-36.25C513,-36.25 614,-36.25 614,-36.25 620,-36.25 626,-42.25 626,-48.25 626,-48.25 626,-245.35 626,-245.35 626,-251.35 620,-257.35 614,-257.35 614,-257.35 513,-257.35 513,-257.35 507,-257.35 501,-251.35 501,-245.35 501,-245.35 501,-48.25 501,-48.25 501,-42.25 507,-36.25 513,-36.25"/>
<text xml:space="preserve" text-anchor="middle" x="563.38" y="-241.95" font-family="Sans-Serif" font-size="12.00" fill="#2d3436">Data Layer</text>
<text xml:space="preserve" text-anchor="middle" x="563.38" y="-226.2" font-family="Sans-Serif" font-size="12.00" fill="#2d3436">(See: data&#45;view.svg)</text>
</g>
<g id="clust4" class="cluster">
<title>cluster_Security Layer
(See: security&#45;view.svg)</title>
<path fill="#fce4ec" stroke="#aeb6be" d="M359,-895.55C359,-895.55 478,-895.55 478,-895.55 484,-895.55 490,-901.55 490,-907.55 490,-907.55 490,-1104.65 490,-1104.65 490,-1110.65 484,-1116.65 478,-1116.65 478,-1116.65 359,-1116.65 359,-1116.65 353,-1116.65 347,-1110.65 347,-1104.65 347,-1104.65 347,-907.55 347,-907.55 347,-901.55 353,-895.55 359,-895.55"/>
<text xml:space="preserve" text-anchor="middle" x="418.38" y="-1101.25" font-family="Sans-Serif" font-size="12.00" fill="#2d3436">Security Layer</text>
<text xml:space="preserve" text-anchor="middle" x="418.38" y="-1085.5" font-family="Sans-Serif" font-size="12.00" fill="#2d3436">(See: security&#45;view.svg)</text>
</g>
<!-- 1d8517a626f74d26b3fb4a1e93721ddc -->
<g id="node1" class="node">
<title>1d8517a626f74d26b3fb4a1e93721ddc</title>
<image xlink:href="C:\Python313\Lib\site-packages\resources/azure/general\resource.png" width="100.8px" height="100.8px" preserveAspectRatio="xMinYMin meet" x="29.6" y="-745.15"/>
<text xml:space="preserve" text-anchor="middle" x="80" y="-632.6" font-family="Sans-Serif" font-size="13.00" fill="#2d3436">Hub&#45;Spoke</text>
<text xml:space="preserve" text-anchor="middle" x="80" y="-616.1" font-family="Sans-Serif" font-size="13.00" fill="#2d3436">Topology</text>
</g>
<!-- d4a2d9a50b3341a5b78259e1257e0415 -->
<g id="node2" class="node">
<title>d4a2d9a50b3341a5b78259e1257e0415</title>
<image xlink:href="C:\Python313\Lib\site-packages\resources/azure/general\resource.png" width="100.8px" height="100.8px" preserveAspectRatio="xMinYMin meet" x="367.6" y="-453.55"/>
<text xml:space="preserve" text-anchor="middle" x="418" y="-341" font-family="Sans-Serif" font-size="13.00" fill="#2d3436">Microservices</text>
<text xml:space="preserve" text-anchor="middle" x="418" y="-324.5" font-family="Sans-Serif" font-size="13.00" fill="#2d3436">&amp; Serverless</text>
</g>
<!-- 1d8517a626f74d26b3fb4a1e93721ddc&#45;&gt;d4a2d9a50b3341a5b78259e1257e0415 -->
<g id="edge1" class="edge">
<title>1d8517a626f74d26b3fb4a1e93721ddc&#45;&gt;d4a2d9a50b3341a5b78259e1257e0415</title>
<path fill="none" stroke="#7b8894" d="M130.26,-667.25C218.68,-667.25 392.8,-667.25 392.8,-667.25 392.8,-667.25 392.8,-497.14 392.8,-497.14"/>
<polygon fill="#7b8894" stroke="#7b8894" points="396.3,-497.14 392.8,-487.14 389.3,-497.14 396.3,-497.14"/>
</g>
<!-- bc0bfd6b2514461b84a32bea85e1e1d6 -->
<g id="node3" class="node">
<title>bc0bfd6b2514461b84a32bea85e1e1d6</title>
<image xlink:href="C:\Python313\Lib\site-packages\resources/azure/general\resource.png" width="100.8px" height="100.8px" preserveAspectRatio="xMinYMin meet" x="513.6" y="-177.45"/>
<text xml:space="preserve" text-anchor="middle" x="564" y="-64.9" font-family="Sans-Serif" font-size="13.00" fill="#2d3436">Databases &amp;</text>
<text xml:space="preserve" text-anchor="middle" x="564" y="-48.4" font-family="Sans-Serif" font-size="13.00" fill="#2d3436">Analytics</text>
</g>
<!-- d4a2d9a50b3341a5b78259e1257e0415&#45;&gt;bc0bfd6b2514461b84a32bea85e1e1d6 -->
<g id="edge2" class="edge">
<title>d4a2d9a50b3341a5b78259e1257e0415&#45;&gt;bc0bfd6b2514461b84a32bea85e1e1d6</title>
<path fill="none" stroke="#7b8894" d="M418,-320.37C418,-239.1 418,-127.25 418,-127.25 418,-127.25 502.24,-127.25 502.24,-127.25"/>
<polygon fill="#7b8894" stroke="#7b8894" points="502.24,-130.75 512.24,-127.25 502.24,-123.75 502.24,-130.75"/>
</g>
<!-- 45d1f823cff141d3836d1604b114c3b3 -->
<g id="node4" class="node">
<title>45d1f823cff141d3836d1604b114c3b3</title>
<image xlink:href="C:\Python313\Lib\site-packages\resources/azure/general\resource.png" width="100.8px" height="100.8px" preserveAspectRatio="xMinYMin meet" x="367.6" y="-1036.75"/>
<text xml:space="preserve" text-anchor="middle" x="418" y="-924.2" font-family="Sans-Serif" font-size="13.00" fill="#2d3436">Identity &amp;</text>
<text xml:space="preserve" text-anchor="middle" x="418" y="-907.7" font-family="Sans-Serif" font-size="13.00" fill="#2d3436">Compliance</text>
</g>
<!-- 45d1f823cff141d3836d1604b114c3b3&#45;&gt;1d8517a626f74d26b3fb4a1e93721ddc -->
<g id="edge3" class="edge">
<title>45d1f823cff141d3836d1604b114c3b3&#45;&gt;1d8517a626f74d26b3fb4a1e93721ddc</title>
<path fill="none" stroke="#7b8894" stroke-dasharray="5,2" d="M418,-903.87C418,-826.38 418,-722.25 418,-722.25 418,-722.25 141.75,-722.25 141.75,-722.25"/>
<polygon fill="#7b8894" stroke="#7b8894" points="141.75,-718.75 131.75,-722.25 141.75,-725.75 141.75,-718.75"/>
<text xml:space="preserve" text-anchor="middle" x="209.88" y="-837.2" font-family="Sans-Serif" font-size="13.00" fill="#2d3436">Cross&#45;cutting</text>
</g>
<!-- 45d1f823cff141d3836d1604b114c3b3&#45;&gt;d4a2d9a50b3341a5b78259e1257e0415 -->
<g id="edge4" class="edge">
<title>45d1f823cff141d3836d1604b114c3b3&#45;&gt;d4a2d9a50b3341a5b78259e1257e0415</title>
<path fill="none" stroke="#7b8894" stroke-dasharray="5,2" d="M443.2,-903.72C443.2,-903.72 443.2,-497.41 443.2,-497.41"/>
<polygon fill="#7b8894" stroke="#7b8894" points="446.7,-497.41 443.2,-487.41 439.7,-497.41 446.7,-497.41"/>
<text xml:space="preserve" text-anchor="middle" x="455.88" y="-690.65" font-family="Sans-Serif" font-size="13.00" fill="#2d3436">Cross&#45;cutting</text>
</g>
<!-- 45d1f823cff141d3836d1604b114c3b3&#45;&gt;bc0bfd6b2514461b84a32bea85e1e1d6 -->
<g id="edge5" class="edge">
<title>45d1f823cff141d3836d1604b114c3b3&#45;&gt;bc0bfd6b2514461b84a32bea85e1e1d6</title>
<path fill="none" stroke="#7b8894" stroke-dasharray="5,2" d="M468.24,-986.25C510.48,-986.25 564,-986.25 564,-986.25 564,-986.25 564,-221.34 564,-221.34"/>
<polygon fill="#7b8894" stroke="#7b8894" points="567.5,-221.34 564,-211.34 560.5,-221.34 567.5,-221.34"/>
<text xml:space="preserve" text-anchor="middle" x="748.88" y="-545.6" font-family="Sans-Serif" font-size="13.00" fill="#2d3436">Cross&#45;cutting</text>
</g>
</g>
</svg>
