<?xml version="1.0" encoding="UTF-8" standalone="no"?>
<!DOCTYPE svg PUBLIC "-//W3C//DTD SVG 1.1//EN"
 "http://www.w3.org/Graphics/SVG/1.1/DTD/svg11.dtd">
<!-- Generated by graphviz version 14.1.2 (20260124.0452)
 -->
<!-- Title: SVG Output Example &#45; E&#45;Commerce Platform Pages: 1 -->
<svg width="1509pt" height="1883pt"
 viewBox="0.00 0.00 1509.00 1883.00" xmlns="http://www.w3.org/2000/svg" xmlns:xlink="http://www.w3.org/1999/xlink">
<g id="graph0" class="graph" transform="scale(2.08333 2.08333) rotate(0) translate(43.2 860.4)">
<title>SVG Output Example &#45; E&#45;Commerce Platform</title>
<polygon fill="white" stroke="none" points="-43.2,43.2 -43.2,-860.4 681.2,-860.4 681.2,43.2 -43.2,43.2"/>
<text xml:space="preserve" text-anchor="middle" x="319" y="-9.4" font-family="Sans-Serif" font-size="18.00" fill="#2d3436">SVG Output Example &#45; E&#45;Commerce Platform</text>
<g id="clust1" class="cluster">
<title>cluster_API Gateway</title>
<path fill="#e5f5fd" stroke="#aeb6be" d="M186,-463.6C186,-463.6 278,-463.6 278,-463.6 284,-463.6 290,-469.6 290,-475.6 290,-475.6 290,-628.15 290,-628.15 290,-634.15 284,-640.15 278,-640.15 278,-640.15 186,-640.15 186,-640.15 180,-640.15 174,-634.15 174,-628.15 174,-628.15 174,-475.6 174,-475.6 174,-469.6 180,-463.6 186,-463.6"/>
<text xml:space="preserve" text-anchor="middle" x="215.75" y="-624.75" font-family="Sans-Serif" font-size="12.00" fill="#2d3436">API Gateway</text>
</g>
<g id="clust2" class="cluster">
<title>cluster_Microservices</title>
<path fill="#e5f5fd" stroke="#aeb6be" d="M178,-239.3C178,-239.3 618,-239.3 618,-239.3 624,-239.3 630,-245.3 630,-251.3 630,-251.3 630,-443.6 630,-443.6 630,-449.6 624,-455.6 618,-455.6 618,-455.6 178,-455.6 178,-455.6 172,-455.6 166,-449.6 166,-443.6 166,-443.6 166,-251.3 166,-251.3 166,-245.3 172,-239.3 178,-239.3"/>
<text xml:space="preserve" text-anchor="middle" x="208.88" y="-440.2" font-family="Sans-Serif" font-size="12.00" fill="#2d3436">Microservices</text>
</g>
<g id="clust3" class="cluster">
<title>cluster_Order Domain</title>
<path fill="#ebf3e7" stroke="#aeb6be" d="M186,-247.3C186,-247.3 278,-247.3 278,-247.3 284,-247.3 290,-253.3 290,-259.3 290,-259.3 290,-411.85 290,-411.85 290,-417.85 284,-423.85 278,-423.85 278,-423.85 186,-423.85 186,-423.85 180,-423.85 174,-417.85 174,-411.85 174,-411.85 174,-259.3 174,-259.3 174,-253.3 180,-247.3 186,-247.3"/>
<text xml:space="preserve" text-anchor="middle" x="219.12" y="-408.45" font-family="Sans-Serif" font-size="12.00" fill="#2d3436">Order Domain</text>
</g>
<g id="clust4" class="cluster">
<title>cluster_Product Domain</title>
<path fill="#ebf3e7" stroke="#aeb6be" d="M352,-247.3C352,-247.3 444,-247.3 444,-247.3 450,-247.3 456,-253.3 456,-259.3 456,-259.3 456,-411.85 456,-411.85 456,-417.85 450,-423.85 444,-423.85 444,-423.85 352,-423.85 352,-423.85 346,-423.85 340,-417.85 340,-411.85 340,-411.85 340,-259.3 340,-259.3 340,-253.3 346,-247.3 352,-247.3"/>
<text xml:space="preserve" text-anchor="middle" x="390.38" y="-408.45" font-family="Sans-Serif" font-size="12.00" fill="#2d3436">Product Domain</text>
</g>
<g id="clust5" class="cluster">
<title>cluster_Notifications</title>
<path fill="#ebf3e7" stroke="#aeb6be" d="M518,-247.3C518,-247.3 610,-247.3 610,-247.3 616,-247.3 622,-253.3 622,-259.3 622,-259.3 622,-411.85 622,-411.85 622,-417.85 616,-423.85 610,-423.85 610,-423.85 518,-423.85 518,-423.85 512,-423.85 506,-417.85 506,-411.85 506,-411.85 506,-259.3 506,-259.3 506,-253.3 512,-247.3 518,-247.3"/>
<text xml:space="preserve" text-anchor="middle" x="546.62" y="-408.45" font-family="Sans-Serif" font-size="12.00" fill="#2d3436">Notifications</text>
</g>
<g id="clust6" class="cluster">
<title>cluster_Data Tier</title>
<path fill="#e5f5fd" stroke="#aeb6be" d="M20,-38.5C20,-38.5 278,-38.5 278,-38.5 284,-38.5 290,-44.5 290,-50.5 290,-50.5 290,-203.05 290,-203.05 290,-209.05 284,-215.05 278,-215.05 278,-215.05 20,-215.05 20,-215.05 14,-215.05 8,-209.05 8,-203.05 8,-203.05 8,-50.5 8,-50.5 8,-44.5 14,-38.5 20,-38.5"/>
<text xml:space="preserve" text-anchor="middle" x="40" y="-199.65" font-family="Sans-Serif" font-size="12.00" fill="#2d3436">Data Tier</text>
</g>
<!-- 260cab6ac916431685e6eac95a462178 -->
<g id="node1" class="node">
<title>260cab6ac916431685e6eac95a462178</title>
<image xlink:href="C:\Python313\Lib\site-packages\resources/onprem/client\users.png" width="100.8px" height="100.8px" preserveAspectRatio="xMinYMin meet" x="181.6" y="-799.2"/>
<text xml:space="preserve" text-anchor="middle" x="232" y="-684.55" font-family="Sans-Serif" font-size="13.00" fill="#2d3436">Customers</text>
</g>
<!-- 88d51cc7e4b84a309a55f91327671a26 -->
<g id="node2" class="node">
<title>88d51cc7e4b84a309a55f91327671a26</title>
<image xlink:href="C:\Python313\Lib\site-packages\resources/azure/integration\api-management.png" width="100.8px" height="100.8px" preserveAspectRatio="xMinYMin meet" x="181.6" y="-590.4"/>
<text xml:space="preserve" text-anchor="middle" x="232" y="-475.75" font-family="Sans-Serif" font-size="13.00" fill="#2d3436">API Management</text>
</g>
<!-- 260cab6ac916431685e6eac95a462178&#45;&gt;88d51cc7e4b84a309a55f91327671a26 -->
<g id="edge1" class="edge">
<title>260cab6ac916431685e6eac95a462178&#45;&gt;88d51cc7e4b84a309a55f91327671a26</title>
<path fill="none" stroke="#7b8894" d="M232,-680.43C232,-680.43 232,-619.68 232,-619.68"/>
<polygon fill="#7b8894" stroke="#7b8894" points="235.5,-619.68 232,-609.68 228.5,-619.68 235.5,-619.68"/>
</g>
<!-- 2cfa3e026ad34113883502057f8ec6bd -->
<g id="node3" class="node">
<title>2cfa3e026ad34113883502057f8ec6bd</title>
<image xlink:href="C:\Python313\Lib\site-packages\resources/azure/compute\kubernetes-services.png" width="100.8px" height="100.8px" preserveAspectRatio="xMinYMin meet" x="181.6" y="-374.1"/>
<text xml:space="preserve" text-anchor="middle" x="232" y="-259.45" font-family="Sans-Serif" font-size="13.00" fill="#2d3436">Order Service</text>
</g>
<!-- 88d51cc7e4b84a309a55f91327671a26&#45;&gt;2cfa3e026ad34113883502057f8ec6bd -->
<g id="edge2" class="edge">
<title>88d51cc7e4b84a309a55f91327671a26&#45;&gt;2cfa3e026ad34113883502057f8ec6bd</title>
<path fill="none" stroke="#7b8894" d="M206.8,-471.86C206.8,-471.86 206.8,-403.38 206.8,-403.38"/>
<polygon fill="#7b8894" stroke="#7b8894" points="210.3,-403.38 206.8,-393.38 203.3,-403.38 210.3,-403.38"/>
</g>
<!-- 01412d263e624033b6225cb786a67ec1 -->
<g id="node4" class="node">
<title>01412d263e624033b6225cb786a67ec1</title>
<image xlink:href="C:\Python313\Lib\site-packages\resources/azure/compute\kubernetes-services.png" width="100.8px" height="100.8px" preserveAspectRatio="xMinYMin meet" x="347.6" y="-374.1"/>
<text xml:space="preserve" text-anchor="middle" x="398" y="-259.45" font-family="Sans-Serif" font-size="13.00" fill="#2d3436">Product Service</text>
</g>
<!-- 88d51cc7e4b84a309a55f91327671a26&#45;&gt;01412d263e624033b6225cb786a67ec1 -->
<g id="edge3" class="edge">
<title>88d51cc7e4b84a309a55f91327671a26&#45;&gt;01412d263e624033b6225cb786a67ec1</title>
<path fill="none" stroke="#7b8894" d="M232,-471.79C232,-444.1 232,-418.5 232,-418.5 232,-418.5 372.8,-418.5 372.8,-418.5 372.8,-418.5 372.8,-403.61 372.8,-403.61"/>
<polygon fill="#7b8894" stroke="#7b8894" points="376.3,-403.61 372.8,-393.61 369.3,-403.61 376.3,-403.61"/>
</g>
<!-- 2f5190bdd14f433a88c1531886a6351f -->
<g id="node6" class="node">
<title>2f5190bdd14f433a88c1531886a6351f</title>
<image xlink:href="C:\Python313\Lib\site-packages\resources/azure/database\cosmos-db.png" width="100.8px" height="100.8px" preserveAspectRatio="xMinYMin meet" x="15.6" y="-165.3"/>
<text xml:space="preserve" text-anchor="middle" x="66" y="-50.65" font-family="Sans-Serif" font-size="13.00" fill="#2d3436">Cosmos DB</text>
</g>
<!-- 2cfa3e026ad34113883502057f8ec6bd&#45;&gt;2f5190bdd14f433a88c1531886a6351f -->
<g id="edge4" class="edge">
<title>2cfa3e026ad34113883502057f8ec6bd&#45;&gt;2f5190bdd14f433a88c1531886a6351f</title>
<path fill="none" stroke="#7b8894" d="M181.74,-323.5C132.89,-323.5 66,-323.5 66,-323.5 66,-323.5 66,-194.72 66,-194.72"/>
<polygon fill="#7b8894" stroke="#7b8894" points="69.5,-194.72 66,-184.72 62.5,-194.72 69.5,-194.72"/>
</g>
<!-- 504f2e96961c46a98b05488589c20fd8 -->
<g id="node8" class="node">
<title>504f2e96961c46a98b05488589c20fd8</title>
<image xlink:href="C:\Python313\Lib\site-packages\resources/azure/integration\service-bus.png" width="100.8px" height="100.8px" preserveAspectRatio="xMinYMin meet" x="347.6" y="-590.4"/>
<text xml:space="preserve" text-anchor="middle" x="398" y="-475.75" font-family="Sans-Serif" font-size="13.00" fill="#2d3436">Event Bus</text>
</g>
<!-- 2cfa3e026ad34113883502057f8ec6bd&#45;&gt;504f2e96961c46a98b05488589c20fd8 -->
<g id="edge6" class="edge">
<title>2cfa3e026ad34113883502057f8ec6bd&#45;&gt;504f2e96961c46a98b05488589c20fd8</title>
<path fill="none" stroke="#7b8894" d="M257.2,-392.08C257.2,-419.84 257.2,-445.5 257.2,-445.5 257.2,-445.5 398,-445.5 398,-445.5 398,-445.5 398,-460.31 398,-460.31"/>
<polygon fill="#7b8894" stroke="#7b8894" points="394.5,-460.31 398,-470.31 401.5,-460.31 394.5,-460.31"/>
</g>
<!-- 82854bbc9bc14e6783e64b7e9d7df2ee -->
<g id="node9" class="node">
<title>82854bbc9bc14e6783e64b7e9d7df2ee</title>
<image xlink:href="C:\Python313\Lib\site-packages\resources/azure/security\key-vaults.png" width="100.8px" height="100.8px" preserveAspectRatio="xMinYMin meet" x="347.6" y="-165.3"/>
<text xml:space="preserve" text-anchor="middle" x="398" y="-50.65" font-family="Sans-Serif" font-size="13.00" fill="#2d3436">Key Vault</text>
</g>
<!-- 2cfa3e026ad34113883502057f8ec6bd&#45;&gt;82854bbc9bc14e6783e64b7e9d7df2ee -->
<g id="edge9" class="edge">
<title>2cfa3e026ad34113883502057f8ec6bd&#45;&gt;82854bbc9bc14e6783e64b7e9d7df2ee</title>
<path fill="none" stroke="#7b8894" stroke-dasharray="5,2" d="M206.8,-255.43C206.8,-225.69 206.8,-197.5 206.8,-197.5 206.8,-197.5 367.76,-197.5 367.76,-197.5 367.76,-197.5 367.76,-194.63 367.76,-194.63"/>
<polygon fill="#7b8894" stroke="#7b8894" points="371.26,-194.63 367.76,-184.63 364.26,-194.63 371.26,-194.63"/>
</g>
<!-- b8de35cd05f14b0f942d75927d18d201 -->
<g id="node10" class="node">
<title>b8de35cd05f14b0f942d75927d18d201</title>
<image xlink:href="C:\Python313\Lib\site-packages\resources/azure/monitor\application-insights.png" width="100.8px" height="100.8px" preserveAspectRatio="xMinYMin meet" x="513.6" y="-165.3"/>
<text xml:space="preserve" text-anchor="middle" x="564" y="-50.65" font-family="Sans-Serif" font-size="13.00" fill="#2d3436">App Insights</text>
</g>
<!-- 2cfa3e026ad34113883502057f8ec6bd&#45;&gt;b8de35cd05f14b0f942d75927d18d201 -->
<g id="edge11" class="edge">
<title>2cfa3e026ad34113883502057f8ec6bd&#45;&gt;b8de35cd05f14b0f942d75927d18d201</title>
<path fill="none" stroke="#7b8894" stroke-dasharray="1,5" d="M232,-255.49C232,-232.47 232,-212.5 232,-212.5 232,-212.5 538.8,-212.5 538.8,-212.5 538.8,-212.5 538.8,-194.73 538.8,-194.73"/>
<polygon fill="#7b8894" stroke="#7b8894" points="542.3,-194.73 538.8,-184.73 535.3,-194.73 542.3,-194.73"/>
</g>
<!-- 37af665f41aa47e9b4fcbcc198924818 -->
<g id="node7" class="node">
<title>37af665f41aa47e9b4fcbcc198924818</title>
<image xlink:href="C:\Python313\Lib\site-packages\resources/azure/database\cache-for-redis.png" width="100.8px" height="100.8px" preserveAspectRatio="xMinYMin meet" x="181.6" y="-165.3"/>
<text xml:space="preserve" text-anchor="middle" x="232" y="-50.65" font-family="Sans-Serif" font-size="13.00" fill="#2d3436">Redis Cache</text>
</g>
<!-- 01412d263e624033b6225cb786a67ec1&#45;&gt;37af665f41aa47e9b4fcbcc198924818 -->
<g id="edge5" class="edge">
<title>01412d263e624033b6225cb786a67ec1&#45;&gt;37af665f41aa47e9b4fcbcc198924818</title>
<path fill="none" stroke="#7b8894" d="M387.92,-255.37C387.92,-246.54 387.92,-240.5 387.92,-240.5 387.92,-240.5 257.2,-240.5 257.2,-240.5 257.2,-240.5 257.2,-194.73 257.2,-194.73"/>
<polygon fill="#7b8894" stroke="#7b8894" points="260.7,-194.73 257.2,-184.73 253.7,-194.73 260.7,-194.73"/>
</g>
<!-- 01412d263e624033b6225cb786a67ec1&#45;&gt;82854bbc9bc14e6783e64b7e9d7df2ee -->
<g id="edge10" class="edge">
<title>01412d263e624033b6225cb786a67ec1&#45;&gt;82854bbc9bc14e6783e64b7e9d7df2ee</title>
<path fill="none" stroke="#7b8894" stroke-dasharray="5,2" d="M408.08,-255.33C408.08,-255.33 408.08,-194.58 408.08,-194.58"/>
<polygon fill="#7b8894" stroke="#7b8894" points="411.58,-194.58 408.08,-184.58 404.58,-194.58 411.58,-194.58"/>
</g>
<!-- 01412d263e624033b6225cb786a67ec1&#45;&gt;b8de35cd05f14b0f942d75927d18d201 -->
<g id="edge12" class="edge">
<title>01412d263e624033b6225cb786a67ec1&#45;&gt;b8de35cd05f14b0f942d75927d18d201</title>
<path fill="none" stroke="#7b8894" stroke-dasharray="1,5" d="M428.24,-255.4C428.24,-239.19 428.24,-226.5 428.24,-226.5 428.24,-226.5 564,-226.5 564,-226.5 564,-226.5 564,-194.55 564,-194.55"/>
<polygon fill="#7b8894" stroke="#7b8894" points="567.5,-194.55 564,-184.55 560.5,-194.55 567.5,-194.55"/>
</g>
<!-- 6bd73b8567214933b19ee7486281a303 -->
<g id="node5" class="node">
<title>6bd73b8567214933b19ee7486281a303</title>
<image xlink:href="C:\Python313\Lib\site-packages\resources/azure/compute\function-apps.png" width="100.8px" height="100.8px" preserveAspectRatio="xMinYMin meet" x="513.6" y="-374.1"/>
<text xml:space="preserve" text-anchor="middle" x="564" y="-259.45" font-family="Sans-Serif" font-size="13.00" fill="#2d3436">Notification Service</text>
</g>
<!-- 6bd73b8567214933b19ee7486281a303&#45;&gt;b8de35cd05f14b0f942d75927d18d201 -->
<g id="edge13" class="edge">
<title>6bd73b8567214933b19ee7486281a303&#45;&gt;b8de35cd05f14b0f942d75927d18d201</title>
<path fill="none" stroke="#7b8894" stroke-dasharray="1,5" d="M589.2,-255.33C589.2,-255.33 589.2,-194.58 589.2,-194.58"/>
<polygon fill="#7b8894" stroke="#7b8894" points="592.7,-194.58 589.2,-184.58 585.7,-194.58 592.7,-194.58"/>
</g>
<!-- 504f2e96961c46a98b05488589c20fd8&#45;&gt;01412d263e624033b6225cb786a67ec1 -->
<g id="edge7" class="edge">
<title>504f2e96961c46a98b05488589c20fd8&#45;&gt;01412d263e624033b6225cb786a67ec1</title>
<path fill="none" stroke="#7b8894" d="M423.2,-471.86C423.2,-471.86 423.2,-403.38 423.2,-403.38"/>
<polygon fill="#7b8894" stroke="#7b8894" points="426.7,-403.38 423.2,-393.38 419.7,-403.38 426.7,-403.38"/>
</g>
<!-- 504f2e96961c46a98b05488589c20fd8&#45;&gt;6bd73b8567214933b19ee7486281a303 -->
<g id="edge8" class="edge">
<title>504f2e96961c46a98b05488589c20fd8&#45;&gt;6bd73b8567214933b19ee7486281a303</title>
<path fill="none" stroke="#7b8894" d="M448.26,-540.5C497.11,-540.5 564,-540.5 564,-540.5 564,-540.5 564,-403.51 564,-403.51"/>
<polygon fill="#7b8894" stroke="#7b8894" points="567.5,-403.51 564,-393.51 560.5,-403.51 567.5,-403.51"/>
</g>
</g>
</svg>
