<?xml version="1.0" encoding="UTF-8" standalone="no"?>
<!DOCTYPE svg PUBLIC "-//W3C//DTD SVG 1.1//EN"
 "http://www.w3.org/Graphics/SVG/1.1/DTD/svg11.dtd">
<!-- Generated by graphviz version 14.1.2 (20260124.0452)
 -->
<!-- Title: WAF Reliability &#45; Multi&#45;Region Failover Pages: 1 -->
<svg width="382pt" height="729pt"
 viewBox="0.00 0.00 382.00 729.00" xmlns="http://www.w3.org/2000/svg" xmlns:xlink="http://www.w3.org/1999/xlink">
<g id="graph0" class="graph" transform="scale(1 1) rotate(0) translate(36 692.95)">
<title>WAF Reliability &#45; Multi&#45;Region Failover</title>
<polygon fill="white" stroke="none" points="-36,36 -36,-692.95 346,-692.95 346,36 -36,36"/>
<text xml:space="preserve" text-anchor="middle" x="155" y="-9.05" font-family="Sans-Serif" font-size="16.00" fill="#2d3436">WAF Reliability &#45; Multi&#45;Region Failover</text>
<g id="clust1" class="cluster">
<title>cluster_Primary &#45; East US</title>
<path fill="#e5f5fd" stroke="#aeb6be" d="M20,-272.85C20,-272.85 112,-272.85 112,-272.85 118,-272.85 124,-278.85 124,-284.85 124,-284.85 124,-437.4 124,-437.4 124,-443.4 118,-449.4 112,-449.4 112,-449.4 20,-449.4 20,-449.4 14,-449.4 8,-443.4 8,-437.4 8,-437.4 8,-284.85 8,-284.85 8,-278.85 14,-272.85 20,-272.85"/>
<text xml:space="preserve" text-anchor="middle" x="62.12" y="-434" font-family="Sans-Serif" font-size="12.00" fill="#2d3436">Primary &#45; East US</text>
</g>
<g id="clust2" class="cluster">
<title>cluster_Secondary &#45; West US</title>
<path fill="#e5f5fd" stroke="#aeb6be" d="M188,-272.85C188,-272.85 290,-272.85 290,-272.85 296,-272.85 302,-278.85 302,-284.85 302,-284.85 302,-437.4 302,-437.4 302,-443.4 296,-449.4 290,-449.4 290,-449.4 188,-449.4 188,-449.4 182,-449.4 176,-443.4 176,-437.4 176,-437.4 176,-284.85 176,-284.85 176,-278.85 182,-272.85 188,-272.85"/>
<text xml:space="preserve" text-anchor="middle" x="239.12" y="-434" font-family="Sans-Serif" font-size="12.00" fill="#2d3436">Secondary &#45; West US</text>
</g>
<!-- a2dd9aea84cb46378f02330b7235bbba -->
<g id="node1" class="node">
<title>a2dd9aea84cb46378f02330b7235bbba</title>
<image xlink:href="C:\Python313\Lib\site-packages\resources/azure/networking\front-door-and-cdn-profiles.png" width="100.8px" height="100.8px" preserveAspectRatio="xMinYMin meet" x="101.6" y="-638.95"/>
<text xml:space="preserve" text-anchor="middle" x="152" y="-524.3" font-family="Sans-Serif" font-size="13.00" fill="#2d3436">Azure Front Door</text>
</g>
<!-- 4ff7c6ded8cb4063b3ade46cf36cf6ef -->
<g id="node2" class="node">
<title>4ff7c6ded8cb4063b3ade46cf36cf6ef</title>
<image xlink:href="C:\Python313\Lib\site-packages\resources/azure/compute\app-services.png" width="100.8px" height="100.8px" preserveAspectRatio="xMinYMin meet" x="15.6" y="-399.65"/>
<text xml:space="preserve" text-anchor="middle" x="66" y="-285" font-family="Sans-Serif" font-size="13.00" fill="#2d3436">App Service</text>
</g>
<!-- a2dd9aea84cb46378f02330b7235bbba&#45;&gt;4ff7c6ded8cb4063b3ade46cf36cf6ef -->
<g id="edge1" class="edge">
<title>a2dd9aea84cb46378f02330b7235bbba&#45;&gt;4ff7c6ded8cb4063b3ade46cf36cf6ef</title>
<path fill="none" stroke="#7b8894" d="M109,-520.3C109,-520.3 109,-429.11 109,-429.11"/>
<polygon fill="#7b8894" stroke="#7b8894" points="112.5,-429.11 109,-419.11 105.5,-429.11 112.5,-429.11"/>
<text xml:space="preserve" text-anchor="middle" x="113.25" y="-464.8" font-family="Sans-Serif" font-size="13.00" fill="#2d3436">Active</text>
</g>
<!-- 20af417ded3746f7b647bf851f8be255 -->
<g id="node3" class="node">
<title>20af417ded3746f7b647bf851f8be255</title>
<image xlink:href="C:\Python313\Lib\site-packages\resources/azure/compute\app-services.png" width="100.8px" height="100.8px" preserveAspectRatio="xMinYMin meet" x="188.6" y="-399.65"/>
<text xml:space="preserve" text-anchor="middle" x="239" y="-285" font-family="Sans-Serif" font-size="13.00" fill="#2d3436">App Service</text>
</g>
<!-- a2dd9aea84cb46378f02330b7235bbba&#45;&gt;20af417ded3746f7b647bf851f8be255 -->
<g id="edge2" class="edge">
<title>a2dd9aea84cb46378f02330b7235bbba&#45;&gt;20af417ded3746f7b647bf851f8be255</title>
<path fill="none" stroke="#7b8894" stroke-dasharray="5,2" d="M195.5,-520.3C195.5,-520.3 195.5,-429.11 195.5,-429.11"/>
<polygon fill="#7b8894" stroke="#7b8894" points="199,-429.11 195.5,-419.11 192,-429.11 199,-429.11"/>
<text xml:space="preserve" text-anchor="middle" x="247" y="-464.8" font-family="Sans-Serif" font-size="13.00" fill="#2d3436">Standby</text>
</g>
<!-- 70c8930562ff4ce28dbdf54a375294d5 -->
<g id="node4" class="node">
<title>70c8930562ff4ce28dbdf54a375294d5</title>
<image xlink:href="C:\Python313\Lib\site-packages\resources/azure/database\cosmos-db.png" width="100.8px" height="100.8px" preserveAspectRatio="xMinYMin meet" x="101.6" y="-161.45"/>
<text xml:space="preserve" text-anchor="middle" x="152" y="-48.9" font-family="Sans-Serif" font-size="13.00" fill="#2d3436">Cosmos DB</text>
<text xml:space="preserve" text-anchor="middle" x="152" y="-32.4" font-family="Sans-Serif" font-size="13.00" fill="#2d3436">(Multi&#45;Region Write)</text>
</g>
<!-- 4ff7c6ded8cb4063b3ade46cf36cf6ef&#45;&gt;70c8930562ff4ce28dbdf54a375294d5 -->
<g id="edge3" class="edge">
<title>4ff7c6ded8cb4063b3ade46cf36cf6ef&#45;&gt;70c8930562ff4ce28dbdf54a375294d5</title>
<path fill="none" stroke="#7b8894" d="M109,-280.99C109,-280.99 109,-205.2 109,-205.2"/>
<polygon fill="#7b8894" stroke="#7b8894" points="112.5,-205.2 109,-195.2 105.5,-205.2 112.5,-205.2"/>
</g>
<!-- 20af417ded3746f7b647bf851f8be255&#45;&gt;70c8930562ff4ce28dbdf54a375294d5 -->
<g id="edge4" class="edge">
<title>20af417ded3746f7b647bf851f8be255&#45;&gt;70c8930562ff4ce28dbdf54a375294d5</title>
<path fill="none" stroke="#7b8894" d="M195.5,-280.99C195.5,-280.99 195.5,-205.2 195.5,-205.2"/>
<polygon fill="#7b8894" stroke="#7b8894" points="199,-205.2 195.5,-195.2 192,-205.2 199,-205.2"/>
</g>
</g>
</svg>
