<?xml version="1.0" encoding="UTF-8" standalone="no"?>
<!DOCTYPE svg PUBLIC "-//W3C//DTD SVG 1.1//EN"
 "http://www.w3.org/Graphics/SVG/1.1/DTD/svg11.dtd">
<!-- Generated by graphviz version 14.1.2 (20260124.0452)
 -->
<!-- Title: WAF Security &#45; Zero Trust Architecture Pages: 1 -->
<svg width="443pt" height="1603pt"
 viewBox="0.00 0.00 443.00 1603.00" xmlns="http://www.w3.org/2000/svg" xmlns:xlink="http://www.w3.org/1999/xlink">
<g id="graph0" class="graph" transform="scale(1 1) rotate(0) translate(36 1567.2)">
<title>WAF Security &#45; Zero Trust Architecture</title>
<polygon fill="white" stroke="none" points="-36,36 -36,-1567.2 407,-1567.2 407,36 -36,36"/>
<text xml:space="preserve" text-anchor="middle" x="185.5" y="-9.05" font-family="Sans-Serif" font-size="16.00" fill="#2d3436">WAF Security &#45; Zero Trust Architecture</text>
<g id="clust1" class="cluster">
<title>cluster_Identity Verification</title>
<path fill="#e5f5fd" stroke="#aeb6be" d="M20,-1109.05C20,-1109.05 115,-1109.05 115,-1109.05 121,-1109.05 127,-1115.05 127,-1121.05 127,-1121.05 127,-1511.2 127,-1511.2 127,-1517.2 121,-1523.2 115,-1523.2 115,-1523.2 20,-1523.2 20,-1523.2 14,-1523.2 8,-1517.2 8,-1511.2 8,-1511.2 8,-1121.05 8,-1121.05 8,-1115.05 14,-1109.05 20,-1109.05"/>
<text xml:space="preserve" text-anchor="middle" x="67.38" y="-1507.8" font-family="Sans-Serif" font-size="12.00" fill="#2d3436">Identity Verification</text>
</g>
<g id="clust2" class="cluster">
<title>cluster_Network Security</title>
<path fill="#e5f5fd" stroke="#aeb6be" d="M20,-691.45C20,-691.45 112,-691.45 112,-691.45 118,-691.45 124,-697.45 124,-703.45 124,-703.45 124,-1064.8 124,-1064.8 124,-1070.8 118,-1076.8 112,-1076.8 112,-1076.8 20,-1076.8 20,-1076.8 14,-1076.8 8,-1070.8 8,-1064.8 8,-1064.8 8,-703.45 8,-703.45 8,-697.45 14,-691.45 20,-691.45"/>
<text xml:space="preserve" text-anchor="middle" x="61" y="-1061.4" font-family="Sans-Serif" font-size="12.00" fill="#2d3436">Network Security</text>
</g>
<g id="clust3" class="cluster">
<title>cluster_Workload (Private VNet)</title>
<path fill="#e5f5fd" stroke="#aeb6be" d="M27,-245.05C27,-245.05 147,-245.05 147,-245.05 153,-245.05 159,-251.05 159,-257.05 159,-257.05 159,-647.2 159,-647.2 159,-653.2 153,-659.2 147,-659.2 147,-659.2 27,-659.2 27,-659.2 21,-659.2 15,-653.2 15,-647.2 15,-647.2 15,-257.05 15,-257.05 15,-251.05 21,-245.05 27,-245.05"/>
<text xml:space="preserve" text-anchor="middle" x="86.75" y="-643.8" font-family="Sans-Serif" font-size="12.00" fill="#2d3436">Workload (Private VNet)</text>
</g>
<g id="clust4" class="cluster">
<title>cluster_Data (Private Endpoints)</title>
<path fill="#e5f5fd" stroke="#aeb6be" d="M86,-36.25C86,-36.25 351,-36.25 351,-36.25 357,-36.25 363,-42.25 363,-48.25 363,-48.25 363,-200.8 363,-200.8 363,-206.8 357,-212.8 351,-212.8 351,-212.8 86,-212.8 86,-212.8 80,-212.8 74,-206.8 74,-200.8 74,-200.8 74,-48.25 74,-48.25 74,-42.25 80,-36.25 86,-36.25"/>
<text xml:space="preserve" text-anchor="middle" x="146.5" y="-197.4" font-family="Sans-Serif" font-size="12.00" fill="#2d3436">Data (Private Endpoints)</text>
</g>
<!-- a0a74209653e4d6389de83748c5dce88 -->
<g id="node1" class="node">
<title>a0a74209653e4d6389de83748c5dce88</title>
<image xlink:href="C:\Python313\Lib\site-packages\resources/azure/identity\active-directory.png" width="100.8px" height="100.8px" preserveAspectRatio="xMinYMin meet" x="15.6" y="-1473.45"/>
<text xml:space="preserve" text-anchor="middle" x="66" y="-1358.8" font-family="Sans-Serif" font-size="13.00" fill="#2d3436">Entra ID</text>
</g>
<!-- be2f4a2ffad243c0ba3fcd4fcc17e5c9 -->
<g id="node2" class="node">
<title>be2f4a2ffad243c0ba3fcd4fcc17e5c9</title>
<image xlink:href="C:\Python313\Lib\site-packages\resources/azure/identity\conditional-access.png" width="100.8px" height="100.8px" preserveAspectRatio="xMinYMin meet" x="15.6" y="-1250.25"/>
<text xml:space="preserve" text-anchor="middle" x="66" y="-1137.7" font-family="Sans-Serif" font-size="13.00" fill="#2d3436">Conditional Access</text>
<text xml:space="preserve" text-anchor="middle" x="66" y="-1121.2" font-family="Sans-Serif" font-size="13.00" fill="#2d3436">(MFA required)</text>
</g>
<!-- a0a74209653e4d6389de83748c5dce88&#45;&gt;be2f4a2ffad243c0ba3fcd4fcc17e5c9 -->
<g id="edge1" class="edge">
<title>a0a74209653e4d6389de83748c5dce88&#45;&gt;be2f4a2ffad243c0ba3fcd4fcc17e5c9</title>
<path fill="none" stroke="#7b8894" d="M66,-1354.87C66,-1354.87 66,-1294.07 66,-1294.07"/>
<polygon fill="#7b8894" stroke="#7b8894" points="69.5,-1294.07 66,-1284.07 62.5,-1294.07 69.5,-1294.07"/>
</g>
<!-- 717a68d7dba24bd1b80dfdb0cdb1c12a -->
<g id="node3" class="node">
<title>717a68d7dba24bd1b80dfdb0cdb1c12a</title>
<image xlink:href="C:\Python313\Lib\site-packages\resources/azure/network\application-gateway.png" width="100.8px" height="100.8px" preserveAspectRatio="xMinYMin meet" x="15.6" y="-1027.05"/>
<text xml:space="preserve" text-anchor="middle" x="66" y="-912.4" font-family="Sans-Serif" font-size="13.00" fill="#2d3436">WAF</text>
</g>
<!-- be2f4a2ffad243c0ba3fcd4fcc17e5c9&#45;&gt;717a68d7dba24bd1b80dfdb0cdb1c12a -->
<g id="edge2" class="edge">
<title>be2f4a2ffad243c0ba3fcd4fcc17e5c9&#45;&gt;717a68d7dba24bd1b80dfdb0cdb1c12a</title>
<path fill="none" stroke="#7b8894" d="M66,-1117.06C66,-1117.06 66,-1056.23 66,-1056.23"/>
<polygon fill="#7b8894" stroke="#7b8894" points="69.5,-1056.23 66,-1046.23 62.5,-1056.23 69.5,-1056.23"/>
</g>
<!-- 653cdaefdd2846fcaf57a6f81cf7c594 -->
<g id="node4" class="node">
<title>653cdaefdd2846fcaf57a6f81cf7c594</title>
<image xlink:href="C:\Python313\Lib\site-packages\resources/azure/network\firewall.png" width="100.8px" height="100.8px" preserveAspectRatio="xMinYMin meet" x="15.6" y="-818.25"/>
<text xml:space="preserve" text-anchor="middle" x="66" y="-703.6" font-family="Sans-Serif" font-size="13.00" fill="#2d3436">Azure Firewall</text>
</g>
<!-- 717a68d7dba24bd1b80dfdb0cdb1c12a&#45;&gt;653cdaefdd2846fcaf57a6f81cf7c594 -->
<g id="edge3" class="edge">
<title>717a68d7dba24bd1b80dfdb0cdb1c12a&#45;&gt;653cdaefdd2846fcaf57a6f81cf7c594</title>
<path fill="none" stroke="#7b8894" d="M66,-908.28C66,-908.28 66,-847.53 66,-847.53"/>
<polygon fill="#7b8894" stroke="#7b8894" points="69.5,-847.53 66,-837.53 62.5,-847.53 69.5,-847.53"/>
</g>
<!-- e3a972303ce1493cab3a0de782328c4c -->
<g id="node6" class="node">
<title>e3a972303ce1493cab3a0de782328c4c</title>
<image xlink:href="C:\Python313\Lib\site-packages\resources/azure/compute\kubernetes-services.png" width="100.8px" height="100.8px" preserveAspectRatio="xMinYMin meet" x="25.6" y="-595.05"/>
<text xml:space="preserve" text-anchor="middle" x="76" y="-482.5" font-family="Sans-Serif" font-size="13.00" fill="#2d3436">AKS</text>
<text xml:space="preserve" text-anchor="middle" x="76" y="-466" font-family="Sans-Serif" font-size="13.00" fill="#2d3436">(no public IP)</text>
</g>
<!-- 653cdaefdd2846fcaf57a6f81cf7c594&#45;&gt;e3a972303ce1493cab3a0de782328c4c -->
<g id="edge4" class="edge">
<title>653cdaefdd2846fcaf57a6f81cf7c594&#45;&gt;e3a972303ce1493cab3a0de782328c4c</title>
<path fill="none" stroke="#7b8894" d="M71,-699.67C71,-699.67 71,-638.87 71,-638.87"/>
<polygon fill="#7b8894" stroke="#7b8894" points="74.5,-638.87 71,-628.87 67.5,-638.87 74.5,-638.87"/>
</g>
<!-- 588dcf34bcc2479aa509b51bdf861fed -->
<g id="node5" class="node">
<title>588dcf34bcc2479aa509b51bdf861fed</title>
<image xlink:href="C:\Python313\Lib\site-packages\resources/azure/identity\managed-identities.png" width="100.8px" height="100.8px" preserveAspectRatio="xMinYMin meet" x="25.6" y="-371.85"/>
<text xml:space="preserve" text-anchor="middle" x="76" y="-257.2" font-family="Sans-Serif" font-size="13.00" fill="#2d3436">Managed Identity</text>
</g>
<!-- 592858a669104392a2f601e75729cfbe -->
<g id="node7" class="node">
<title>592858a669104392a2f601e75729cfbe</title>
<image xlink:href="C:\Python313\Lib\site-packages\resources/azure/database\sql.png" width="100.8px" height="100.8px" preserveAspectRatio="xMinYMin meet" x="81.6" y="-163.05"/>
<text xml:space="preserve" text-anchor="middle" x="132" y="-48.4" font-family="Sans-Serif" font-size="13.00" fill="#2d3436">Azure SQL</text>
</g>
<!-- 588dcf34bcc2479aa509b51bdf861fed&#45;&gt;592858a669104392a2f601e75729cfbe -->
<g id="edge7" class="edge">
<title>588dcf34bcc2479aa509b51bdf861fed&#45;&gt;592858a669104392a2f601e75729cfbe</title>
<path fill="none" stroke="#7b8894" d="M104,-253.08C104,-253.08 104,-192.33 104,-192.33"/>
<polygon fill="#7b8894" stroke="#7b8894" points="107.5,-192.33 104,-182.33 100.5,-192.33 107.5,-192.33"/>
</g>
<!-- 3cc25408899a441386df88b81233cb1b -->
<g id="node8" class="node">
<title>3cc25408899a441386df88b81233cb1b</title>
<image xlink:href="C:\Python313\Lib\site-packages\resources/azure/security\key-vaults.png" width="100.8px" height="100.8px" preserveAspectRatio="xMinYMin meet" x="254.6" y="-163.05"/>
<text xml:space="preserve" text-anchor="middle" x="305" y="-48.4" font-family="Sans-Serif" font-size="13.00" fill="#2d3436">Key Vault</text>
</g>
<!-- 588dcf34bcc2479aa509b51bdf861fed&#45;&gt;3cc25408899a441386df88b81233cb1b -->
<g id="edge6" class="edge">
<title>588dcf34bcc2479aa509b51bdf861fed&#45;&gt;3cc25408899a441386df88b81233cb1b</title>
<path fill="none" stroke="#7b8894" d="M125.97,-321.25C182.33,-321.25 266.2,-321.25 266.2,-321.25 266.2,-321.25 266.2,-192.47 266.2,-192.47"/>
<polygon fill="#7b8894" stroke="#7b8894" points="269.7,-192.47 266.2,-182.47 262.7,-192.47 269.7,-192.47"/>
</g>
<!-- e3a972303ce1493cab3a0de782328c4c&#45;&gt;588dcf34bcc2479aa509b51bdf861fed -->
<g id="edge5" class="edge">
<title>e3a972303ce1493cab3a0de782328c4c&#45;&gt;588dcf34bcc2479aa509b51bdf861fed</title>
<path fill="none" stroke="#7b8894" d="M76,-461.86C76,-461.86 76,-401.03 76,-401.03"/>
<polygon fill="#7b8894" stroke="#7b8894" points="79.5,-401.03 76,-391.03 72.5,-401.03 79.5,-401.03"/>
</g>
<!-- fb672e1441e74663851efe7037b48b63 -->
<g id="node9" class="node">
<title>fb672e1441e74663851efe7037b48b63</title>
<image xlink:href="C:\Python313\Lib\site-packages\resources/azure/security\defender.png" width="100.8px" height="100.8px" preserveAspectRatio="xMinYMin meet" x="188.6" y="-818.25"/>
<text xml:space="preserve" text-anchor="middle" x="239" y="-703.6" font-family="Sans-Serif" font-size="13.00" fill="#2d3436">Defender for Cloud</text>
</g>
<!-- fb672e1441e74663851efe7037b48b63&#45;&gt;e3a972303ce1493cab3a0de782328c4c -->
<g id="edge8" class="edge">
<title>fb672e1441e74663851efe7037b48b63&#45;&gt;e3a972303ce1493cab3a0de782328c4c</title>
<path fill="none" stroke="#7b8894" stroke-dasharray="1,5" d="M188.79,-790.25C156.82,-790.25 121.4,-790.25 121.4,-790.25 121.4,-790.25 121.4,-638.63 121.4,-638.63"/>
<polygon fill="#7b8894" stroke="#7b8894" points="124.9,-638.63 121.4,-628.63 117.9,-638.63 124.9,-638.63"/>
</g>
<!-- fb672e1441e74663851efe7037b48b63&#45;&gt;592858a669104392a2f601e75729cfbe -->
<g id="edge9" class="edge">
<title>fb672e1441e74663851efe7037b48b63&#45;&gt;592858a669104392a2f601e75729cfbe</title>
<path fill="none" stroke="#7b8894" stroke-dasharray="1,5" d="M188.81,-745.25C170.59,-745.25 154.4,-745.25 154.4,-745.25 154.4,-745.25 154.4,-192.46 154.4,-192.46"/>
<polygon fill="#7b8894" stroke="#7b8894" points="157.9,-192.46 154.4,-182.46 150.9,-192.46 157.9,-192.46"/>
</g>
<!-- fb672e1441e74663851efe7037b48b63&#45;&gt;3cc25408899a441386df88b81233cb1b -->
<g id="edge10" class="edge">
<title>fb672e1441e74663851efe7037b48b63&#45;&gt;3cc25408899a441386df88b81233cb1b</title>
<path fill="none" stroke="#7b8894" stroke-dasharray="1,5" d="M277.8,-699.59C277.8,-699.59 277.8,-192.27 277.8,-192.27"/>
<polygon fill="#7b8894" stroke="#7b8894" points="281.3,-192.27 277.8,-182.27 274.3,-192.27 281.3,-192.27"/>
</g>
</g>
</svg>
